# xmcd
#
# Track frame offsets: 
#        150
#        18124
#        33202
#        43982
#        57455
#        67795
#        80449
#        94501
#        109383
#        124381
#        136771
#        147072
#        164382
#        179520
#
# Disc length: 2622 seconds
#
# Revision: 0
# Processed by: cddbd v1.5.2PL0 Copyright (c) Steve Scherf et al.
# Submitted via: ExactAudioCopy v0.95b4
#
DISCID=ba0a3c0e
DTITLE=Kindred Spirits - Kindred Spirits
DYEAR=2007
DGENRE=Chorus
TTITLE0=Fix You
TTITLE1=Perfect Day
TTITLE2=Caresse Sur L'océan
TTITLE3=Lullaby for the World
TTITLE4=One love/People Get Ready
TTITLE5=Shepherd's Pipe Carol
TTITLE6=The Ashgrove
TTITLE7=You've Got a friend
TTITLE8=O Waly, Waly
TTITLE9=Because You Loved Me
TTITLE10=Here comes the Sun
TTITLE11=In the Bleak Midwinter
TTITLE12=Perfect Day (sing along version)
TTITLE13=In the bleak Midwinter (sing along version)
EXTD=
EXTT0=
EXTT1=
EXTT2=
EXTT3=
EXTT4=
EXTT5=
EXTT6=
EXTT7=
EXTT8=
EXTT9=
EXTT10=
EXTT11=
EXTT12=
EXTT13=
PLAYORDER=
